<?xml version="1.0" encoding="UTF-8"?>
<!DOCTYPE svg PUBLIC "-//W3C//DTD SVG 1.1//EN" "http://www.w3.org/Graphics/SVG/1.1/DTD/svg11.dtd">
<!-- Creator: CorelDRAW 2017 -->
<svg xmlns="http://www.w3.org/2000/svg" xml:space="preserve" width="98.3055mm" height="17.9544mm" version="1.1" style="shape-rendering:geometricPrecision; text-rendering:geometricPrecision; image-rendering:optimizeQuality; fill-rule:evenodd; clip-rule:evenodd"
viewBox="0 0 3502 640"
 xmlns:xlink="http://www.w3.org/1999/xlink">
 <defs>
  <style type="text/css">
   <![CDATA[
    .fil0 {fill:#FEFEFE;fill-rule:nonzero}
    .fil1 {fill:#FEFEFE;fill-rule:nonzero}
   ]]>
  </style>
 </defs>
 <g id="Capa_x0020_1">
  <metadata id="CorelCorpID_0Corel-Layer"/>
  <g id="_3022318420448">
   <path class="fil0" d="M147 628c10,0 16,-6 16,-16l0 -348c0,-10 -6,-16 -16,-16l-115 0c-10,0 -16,6 -16,16l0 348c0,10 6,16 16,16l115 0z"/>
   <path class="fil0" d="M462 212c-16,-6 -41,-10 -64,-10 -103,0 -169,70 -169,181l0 71c0,108 76,185 193,185 56,0 125,-11 174,-29 9,-3 13,-10 13,-18l0 -516c0,-10 -6,-16 -16,-16l-115 0c-10,0 -16,6 -16,16l0 136zm-84 247l0 -79c0,-33 16,-51 45,-51 14,0 27,2 38,6l0 168c-11,4 -24,6 -37,6 -30,0 -46,-17 -46,-51z"/>
   <path class="fil0" d="M1049 375c0,-123 -74,-173 -182,-173 -112,0 -192,53 -192,173l0 89c0,115 82,175 196,175 73,0 125,-21 163,-51 8,-6 8,-14 2,-22l-48 -65c-6,-8 -13,-10 -21,-4 -27,15 -59,22 -91,22 -35,0 -54,-18 -54,-51l0 -4 210 0c10,0 16,-6 16,-16l0 -73zm-141 -9l0 13 -85 0 0 -13c0,-31 14,-48 42,-48 28,0 43,17 43,48z"/>
   <path class="fil0" d="M1282 223c0,-1 -1,-2 -2,-2l-9 0c-1,0 -2,1 -2,2l0 156c0,1 1,2 2,2l9 0c1,0 2,-1 2,-2l0 -156zm47 158c1,0 2,-1 2,-2l0 -99c9,-3 20,-5 31,-5 23,0 37,11 37,36l0 69c0,1 1,2 2,2l8 0c1,0 2,-1 2,-2l0 -69c0,-32 -19,-46 -48,-46 -15,0 -29,3 -41,9 -1,0 -2,1 -2,2l0 105c0,1 1,2 2,2l8 0zm162 -151c1,0 2,-1 2,-2l0 -7c0,-1 0,-2 -2,-2 -4,-1 -10,-1 -13,-1 -21,0 -36,14 -36,38l0 122c0,1 1,2 2,2l8 0c1,0 2,-1 2,-2l0 -102 36 0c1,0 2,-1 2,-2l0 -7c0,-1 -1,-2 -2,-2l-36 0 0 -9c0,-17 9,-27 25,-27 3,0 8,0 12,1l0 0zm30 151c1,0 2,-1 2,-2l0 -99c8,-3 19,-5 29,-5 7,0 14,1 21,2 1,0 2,0 2,-2l0 -7c0,-1 0,-2 -2,-2 -8,-1 -15,-2 -23,-2 -13,0 -27,3 -38,8 -1,0 -2,1 -2,2l0 105c0,1 1,2 2,2l8 0zm69 -106c-1,0 -1,1 0,2l4 6c1,1 2,1 2,0 8,-5 21,-9 34,-9 23,0 31,12 31,31l0 10c-8,-2 -20,-4 -31,-4 -29,0 -47,12 -47,35 0,24 21,36 47,36 16,0 32,-4 41,-8 1,0 2,-1 2,-2l0 -68c0,-27 -15,-42 -43,-42 -17,0 -31,5 -41,12zm6 72c0,-16 12,-25 35,-25 11,0 23,2 31,3l0 41c-8,3 -19,5 -31,5 -20,0 -35,-9 -35,-25zm196 -40c0,-29 -20,-43 -45,-43 -25,0 -46,15 -46,43l0 35c0,27 22,41 45,41 19,0 33,-8 43,-17 1,-1 1,-2 0,-3l-4 -5c-1,-1 -2,-1 -3,0 -8,7 -20,14 -36,14 -19,0 -34,-11 -34,-31l0 -12 77 0c1,0 2,-1 2,-2l0 -21zm-12 0l0 13 -67 0 0 -13c0,-21 13,-32 34,-32 20,0 34,11 34,32zm118 43c0,-24 -22,-29 -41,-33 -17,-4 -33,-8 -33,-23 0,-12 12,-20 29,-20 12,0 24,4 34,9 1,1 2,0 3,-1l4 -6c1,-1 0,-2 -1,-3 -12,-6 -24,-11 -39,-11 -22,0 -41,10 -41,31 0,24 25,31 42,34 15,3 31,6 31,22 0,14 -13,22 -31,22 -14,0 -26,-5 -37,-13 -1,-1 -2,-1 -3,0l-4 6c0,1 0,2 1,2 12,10 27,14 43,14 27,0 43,-13 43,-33zm36 -5l0 -68 34 0c1,0 2,-1 2,-2l0 -7c0,-1 -1,-2 -2,-2l-34 0 -1 -27c0,-1 -1,-2 -2,-2l-7 0c-1,0 -2,1 -2,2l0 106c0,25 14,38 36,38 3,0 9,0 13,-1 1,0 2,-1 2,-2l0 -7c0,-1 -1,-2 -2,-2 -4,0 -9,0 -12,0 -16,0 -25,-10 -25,-27zm68 36c1,0 2,-1 2,-2l0 -99c8,-3 19,-5 29,-5 7,0 14,1 21,2 1,0 2,0 2,-2l0 -7c0,-1 0,-2 -2,-2 -8,-1 -15,-2 -23,-2 -13,0 -27,3 -38,8 -1,0 -2,1 -2,2l0 105c0,1 1,2 2,2l8 0zm153 -115c-1,0 -2,1 -2,2l0 99c-8,3 -19,6 -30,6 -23,0 -36,-11 -36,-36l0 -69c0,-1 -1,-2 -2,-2l-8 0c-1,0 -2,1 -2,2l0 69c0,32 19,46 47,46 15,0 29,-3 41,-9 1,0 1,-1 1,-2l0 -104c0,-1 -1,-2 -2,-2l-8 0zm123 104c1,-1 1,-2 0,-3l-4 -6c-1,-1 -2,-1 -3,0 -10,8 -21,11 -33,11 -22,0 -34,-14 -34,-31l0 -35c0,-18 12,-31 34,-31 11,0 21,3 30,10 1,1 2,0 3,0l4 -6c1,-1 0,-2 -1,-3 -11,-8 -23,-12 -36,-12 -29,0 -46,18 -46,42l0 35c0,24 17,42 46,42 15,0 28,-5 39,-14zm34 -25l0 -68 34 0c1,0 2,-1 2,-2l0 -7c0,-1 -1,-2 -2,-2l-34 0 -1 -27c0,-1 -1,-2 -2,-2l-7 0c-1,0 -2,1 -2,2l0 106c0,25 14,38 36,38 3,0 9,0 13,-1 1,0 2,-1 2,-2l0 -7c0,-1 -1,-2 -2,-2 -4,0 -9,0 -12,0 -16,0 -25,-10 -25,-27zm137 -79c-1,0 -2,1 -2,2l0 99c-8,3 -19,6 -30,6 -23,0 -36,-11 -36,-36l0 -69c0,-1 -1,-2 -2,-2l-8 0c-1,0 -2,1 -2,2l0 69c0,32 19,46 47,46 15,0 29,-3 41,-9 1,0 1,-1 1,-2l0 -104c0,-1 -1,-2 -2,-2l-8 0zm52 115c1,0 2,-1 2,-2l0 -99c8,-3 19,-5 29,-5 7,0 14,1 21,2 1,0 2,0 2,-2l0 -7c0,-1 0,-2 -2,-2 -8,-1 -15,-2 -23,-2 -13,0 -27,3 -38,8 -1,0 -2,1 -2,2l0 105c0,1 1,2 2,2l8 0zm69 -106c-1,0 -1,1 0,2l4 6c1,1 2,1 2,0 8,-5 21,-9 34,-9 23,0 31,12 31,31l0 10c-8,-2 -20,-4 -31,-4 -29,0 -47,12 -47,35 0,24 21,36 47,36 16,0 32,-4 41,-8 1,0 2,-1 2,-2l0 -68c0,-27 -15,-42 -43,-42 -17,0 -31,5 -41,12zm6 72c0,-16 12,-25 35,-25 11,0 23,2 31,3l0 41c-8,3 -19,5 -31,5 -20,0 -35,-9 -35,-25zm236 -75c-9,-5 -20,-9 -32,-9 -29,0 -47,16 -47,48l0 24c0,33 19,48 48,48 14,0 29,-3 41,-8 1,0 2,-1 2,-2l0 -150c0,-1 -1,-2 -2,-2l-8 0c-1,0 -2,1 -2,2l0 49zm-68 63l0 -24c0,-26 13,-37 36,-37 12,0 23,4 31,10l0 84c-9,3 -20,5 -31,5 -23,0 -37,-11 -37,-37zm199 -29c0,-29 -20,-43 -45,-43 -25,0 -46,15 -46,43l0 35c0,27 22,41 45,41 19,0 33,-8 43,-17 1,-1 1,-2 0,-3l-4 -5c-1,-1 -2,-1 -3,0 -8,7 -20,14 -36,14 -19,0 -34,-11 -34,-31l0 -12 77 0c1,0 2,-1 2,-2l0 -21zm-12 0l0 13 -67 0 0 -13c0,-21 13,-32 34,-32 20,0 34,11 34,32zm-1608 290c35,0 56,-20 56,-56l0 -48c0,-35 -21,-56 -56,-56l-54 0c-1,0 -2,1 -2,2l0 156c0,1 1,2 2,2l54 0zm-43 -148l43 0c27,0 43,16 43,45l0 48c0,29 -16,44 -43,44l-43 0 0 -136zm129 42c-1,0 -1,1 0,2l4 6c1,1 2,1 2,0 8,-5 21,-9 34,-9 23,0 31,12 31,31l0 10c-8,-2 -20,-4 -31,-4 -29,0 -47,12 -47,35 0,24 21,36 47,36 16,0 32,-4 41,-8 1,0 2,-1 2,-2l0 -68c0,-27 -15,-42 -43,-42 -17,0 -31,5 -41,12zm6 72c0,-16 12,-25 35,-25 11,0 23,2 31,3l0 41c-8,3 -19,5 -31,5 -20,0 -35,-9 -35,-25zm120 -2l0 -68 34 0c1,0 2,-1 2,-2l0 -7c0,-1 -1,-2 -2,-2l-34 0 -1 -27c0,-1 -1,-2 -2,-2l-7 0c-1,0 -2,1 -2,2l0 106c0,25 14,38 36,38 3,0 9,0 13,-1 1,0 2,-1 2,-2l0 -7c0,-1 -1,-2 -2,-2 -4,0 -9,0 -12,0 -16,0 -25,-10 -25,-27zm148 -4l0 -34c0,-25 -17,-43 -47,-43 -30,0 -47,19 -47,43l0 34c0,25 17,43 47,43 30,0 47,-18 47,-43zm-83 0l0 -34c0,-19 12,-32 35,-32 24,0 36,14 36,32l0 34c0,19 -12,32 -36,32 -23,0 -35,-14 -35,-32zm191 9c0,-24 -22,-29 -41,-33 -17,-4 -33,-8 -33,-23 0,-12 12,-20 29,-20 12,0 24,4 34,9 1,1 2,0 3,-1l4 -6c1,-1 0,-2 -1,-3 -12,-6 -24,-11 -39,-11 -22,0 -41,10 -41,31 0,24 25,31 42,34 15,3 31,6 31,22 0,14 -13,22 -31,22 -14,0 -26,-5 -37,-13 -1,-1 -2,-1 -3,0l-4 6c0,1 0,2 1,2 12,10 27,14 43,14 27,0 43,-13 43,-33zm93 -45l73 0c1,0 2,-1 2,-2l0 -8c0,-1 -1,-2 -2,-2l-73 0 0 -61 78 0c1,0 2,-1 2,-2l0 -8c0,-1 -1,-2 -2,-2l-88 0c-1,0 -2,1 -2,2l0 156c0,1 1,2 2,2l92 0c1,0 2,-1 2,-2l0 -8c0,-1 -1,-2 -2,-2l-81 0 0 -64zm190 45c0,-24 -22,-29 -41,-33 -17,-4 -33,-8 -33,-23 0,-12 12,-20 29,-20 12,0 24,4 34,9 1,1 2,0 3,-1l4 -6c1,-1 0,-2 -1,-3 -12,-6 -24,-11 -39,-11 -22,0 -41,10 -41,31 0,24 25,31 42,34 15,3 31,6 31,22 0,14 -13,22 -31,22 -14,0 -26,-5 -37,-13 -1,-1 -2,-1 -3,0l-4 6c0,1 0,2 1,2 12,10 27,14 43,14 27,0 43,-13 43,-33zm26 -78c-1,0 -1,1 -1,2l0 148c0,1 1,2 2,2l8 0c1,0 2,-1 2,-2l0 -47c9,5 20,9 32,9 29,0 48,-16 48,-48l0 -24c0,-33 -19,-48 -48,-48 -14,0 -29,3 -42,8zm42 101c-11,0 -23,-4 -31,-10l0 -83c9,-3 20,-5 31,-5 23,0 36,11 36,37l0 24c0,26 -13,37 -36,37zm75 -97c-1,0 -1,1 0,2l4 6c1,1 2,1 2,0 8,-5 21,-9 34,-9 23,0 31,12 31,31l0 10c-8,-2 -20,-4 -31,-4 -29,0 -47,12 -47,35 0,24 21,36 47,36 16,0 32,-4 41,-8 1,0 2,-1 2,-2l0 -68c0,-27 -15,-42 -43,-42 -17,0 -31,5 -41,12zm6 72c0,-16 12,-25 35,-25 11,0 23,2 31,3l0 41c-8,3 -19,5 -31,5 -20,0 -35,-9 -35,-25zm190 23c1,-1 1,-2 0,-3l-4 -6c-1,-1 -2,-1 -3,0 -10,8 -21,11 -33,11 -22,0 -34,-14 -34,-31l0 -35c0,-18 12,-31 34,-31 11,0 21,3 30,10 1,1 2,0 3,0l4 -6c1,-1 0,-2 -1,-3 -11,-8 -23,-12 -36,-12 -29,0 -46,18 -46,42l0 35c0,24 17,42 46,42 15,0 28,-5 39,-14zm33 11c1,0 2,-1 2,-2l0 -111c0,-1 -1,-2 -2,-2l-8 0c-1,0 -2,1 -2,2l0 111c0,1 1,2 2,2l8 0zm4 -146c0,-5 -3,-8 -8,-8 -5,0 -8,3 -8,8 0,4 3,8 8,8 4,0 8,-3 8,-8zm29 41c-1,0 -1,1 0,2l4 6c1,1 2,1 2,0 8,-5 21,-9 34,-9 23,0 31,12 31,31l0 10c-8,-2 -20,-4 -31,-4 -29,0 -47,12 -47,35 0,24 21,36 47,36 16,0 32,-4 41,-8 1,0 2,-1 2,-2l0 -68c0,-27 -15,-42 -43,-42 -17,0 -31,5 -41,12zm6 72c0,-16 12,-25 35,-25 11,0 23,2 31,3l0 41c-8,3 -19,5 -31,5 -20,0 -35,-9 -35,-25zm152 35c1,0 2,-1 2,-2l0 -7c0,-1 -1,-2 -2,-2 -4,0 -9,1 -12,1 -12,0 -20,-8 -20,-27l0 -122c0,-1 -1,-2 -2,-2l-8 0c-1,0 -2,1 -2,2l0 121c0,27 12,39 31,39 4,0 9,0 13,-1zm105 -76c0,-29 -20,-43 -45,-43 -25,0 -46,15 -46,43l0 35c0,27 22,41 45,41 19,0 33,-8 43,-17 1,-1 1,-2 0,-3l-4 -5c-1,-1 -2,-1 -3,0 -8,7 -20,14 -36,14 -19,0 -34,-11 -34,-31l0 -12 77 0c1,0 2,-1 2,-2l0 -21zm-12 0l0 13 -67 0 0 -13c0,-21 13,-32 34,-32 20,0 34,11 34,32zm118 43c0,-24 -22,-29 -41,-33 -17,-4 -33,-8 -33,-23 0,-12 12,-20 29,-20 12,0 24,4 34,9 1,1 2,0 3,-1l4 -6c1,-1 0,-2 -1,-3 -12,-6 -24,-11 -39,-11 -22,0 -41,10 -41,31 0,24 25,31 42,34 15,3 31,6 31,22 0,14 -13,22 -31,22 -14,0 -26,-5 -37,-13 -1,-1 -2,-1 -3,0l-4 6c0,1 0,2 1,2 12,10 27,14 43,14 27,0 43,-13 43,-33zm66 -128c-2,0 -3,1 -3,3l0 18c0,2 1,3 3,3l45 0 0 131c0,2 1,3 3,3l21 0c2,0 3,-1 3,-3l0 -131 45 0c2,0 3,-1 3,-3l0 -18c0,-2 -1,-3 -3,-3l-117 0zm117 53c-1,1 -1,2 0,4l9 14c1,2 3,2 4,1 7,-4 17,-7 29,-7 17,0 22,7 22,23l0 4c-7,-1 -15,-2 -22,-2 -29,0 -49,11 -49,36 0,28 24,37 50,37 16,0 33,-3 45,-7 2,-1 2,-2 2,-4l0 -65c0,-31 -19,-45 -46,-45 -18,0 -33,4 -44,12zm19 72c0,-9 7,-15 23,-15 7,0 16,1 22,2l0 25c-6,1 -14,3 -21,3 -14,0 -24,-4 -24,-15zm120 35c2,0 3,-1 3,-3l0 -89c5,-1 13,-2 21,-2 16,0 26,6 26,27l0 64c0,2 1,3 3,3l19 0c2,0 3,-1 3,-3l0 -65c0,-36 -21,-50 -52,-50 -16,0 -31,3 -44,9 -2,1 -2,2 -2,4l0 102c0,2 1,3 3,3l19 0zm172 -113c-7,-3 -15,-5 -24,-5 -28,0 -49,18 -49,47l0 25c0,34 22,49 51,49 14,0 32,-3 45,-8 2,-1 2,-2 2,-4l0 -147c0,-2 -1,-3 -3,-3l-19 0c-2,0 -3,1 -3,3l0 43zm-47 67l0 -25c0,-17 9,-24 25,-24 9,0 16,2 21,6l0 66c-5,2 -13,3 -21,3 -16,0 -26,-7 -26,-26zm123 46c2,0 3,-1 3,-3l0 -109c0,-2 -1,-3 -3,-3l-19 0c-2,0 -3,1 -3,3l0 109c0,2 1,3 3,3l19 0zm5 -146c0,-8 -6,-14 -14,-14 -8,0 -15,6 -15,14 0,8 6,15 15,15 8,0 14,-6 14,-15zm76 148c2,0 2,-2 2,-4l0 -17c0,-2 -1,-3 -3,-3 -3,0 -6,0 -8,0 -10,0 -15,-6 -15,-21l0 -115c0,-2 -1,-3 -3,-3l-19 0c-2,0 -3,1 -3,3l0 116c0,27 13,43 37,43 4,0 9,0 13,-1l0 0z"/>
   <path class="fil1" d="M185 91c0,-54 -37,-91 -91,-91 -56,0 -93,37 -93,91 0,25 9,47 24,63l67 70c11,-11 69,-70 69,-70 15,-16 24,-39 24,-63zm-94 -34c15,0 28,12 28,28 0,15 -12,28 -28,28 -15,0 -28,-12 -28,-28 0,-15 12,-28 28,-28z"/>
  </g>
 </g>
</svg>
