<?xml version="1.0" encoding="UTF-8"?>
<!DOCTYPE svg PUBLIC "-//W3C//DTD SVG 1.1//EN" "http://www.w3.org/Graphics/SVG/1.1/DTD/svg11.dtd">
<!-- Creator: CorelDRAW 2017 -->
<svg xmlns="http://www.w3.org/2000/svg" xml:space="preserve" width="48.6488mm" height="20.8749mm" version="1.1" style="shape-rendering:geometricPrecision; text-rendering:geometricPrecision; image-rendering:optimizeQuality; fill-rule:evenodd; clip-rule:evenodd"
viewBox="0 0 555 238"
 xmlns:xlink="http://www.w3.org/1999/xlink">
 <defs>
  <style type="text/css">
   <![CDATA[
    .fil0 {fill:white;fill-rule:nonzero}
   ]]>
  </style>
 </defs>
 <g id="Capa_x0020_1">
  <metadata id="CorelCorpID_0Corel-Layer"/>
  <g id="_3022317786448">
   <path class="fil0" d="M389 143l0 45c0,1 0,2 -2,2l-10 0c-2,0 -2,-1 -2,-2l0 -45 -10 0c-1,0 -2,0 -2,-2l0 -5c0,-1 0,-2 2,-2l35 0c1,0 2,0 2,2l0 5c0,1 0,2 -2,2l-10 0 0 0z"/>
   <path class="fil0" d="M417 180c0,2 0,5 -4,5 -2,0 -5,-2 -5,-6 0,-6 4,-7 9,-9l0 10zm8 -30c-3,-2 -6,-2 -9,-2 -12,0 -18,5 -18,10 0,3 2,5 5,5 4,0 5,-2 5,-5 0,-1 1,-4 4,-4 4,0 4,3 4,6l0 4c-10,2 -21,5 -21,15 0,12 14,12 17,12 9,0 13,-3 15,-4 1,-2 1,-4 1,-5l0 -22c0,-3 0,-7 -4,-10z"/>
   <polygon class="fil0" points="0,225 238,225 238,221 0,221 "/>
   <path class="fil0" d="M348 106c3,-8 4,-17 4,-26 0,-44 -33,-80 -74,-80 -41,0 -74,36 -74,80 0,9 1,17 4,26 0,0 0,0 0,0 0,0 2,-1 2,-1 0,0 0,0 0,0 0,0 3,-2 3,-2 -2,-7 -3,-14 -3,-22 0,-41 30,-74 68,-74 37,0 68,33 68,74 0,7 -1,15 -3,22 0,0 3,2 3,2 0,0 1,1 2,2z"/>
   <path class="fil0" d="M47 145l-18 43c-1,2 -1,2 -2,2 -1,0 -1,0 -2,-2l-18 -43 0 43c0,1 0,1 -1,1l-4 0c-1,0 -1,-1 -1,-2l0 -54c0,-1 0,-2 1,-2l5 0c1,0 1,0 2,2l18 42 17 -42c1,-1 1,-2 2,-2l6 0c1,0 2,0 2,1l0 54c0,1 0,1 -2,1l-4 0c-1,0 -1,0 -1,-2l0 -43z"/>
   <path class="fil0" d="M96 180c0,4 0,6 -3,8 -1,1 -6,3 -13,3 -6,0 -9,-2 -11,-3 -3,-2 -4,-6 -4,-10l0 -28c0,-1 0,-1 1,-1l4 0c1,0 2,0 2,2l0 27c0,4 0,10 9,10 8,0 8,-5 8,-9l0 -27c0,-1 0,-1 1,-2 0,0 3,0 4,0 1,0 2,0 2,2l0 30z"/>
   <path class="fil0" d="M137 188c0,1 0,1 -1,2l-4 0c-1,0 -2,0 -2,-2l0 -27c0,-4 0,-10 -9,-10 -9,0 -9,5 -9,7l0 30c0,1 -1,2 -2,2l-4 0c-1,0 -2,0 -2,-2l0 -32c0,-3 0,-4 3,-6 5,-3 13,-3 14,-3 15,0 15,9 15,13l0 28z"/>
   <path class="fil0" d="M150 141c-3,0 -4,-2 -4,-4 0,-2 2,-4 4,-4 2,0 4,2 4,4 0,2 -2,4 -4,4l0 0z"/>
   <path class="fil0" d="M154 188c0,1 0,1 -2,1l-4 0c-1,0 -1,0 -1,-1l0 -39c0,-1 0,-2 1,-2l4 0c1,0 2,0 2,2l0 39z"/>
   <path class="fil0" d="M178 152c-6,0 -10,5 -10,15 0,12 6,17 12,17 6,0 8,-4 10,-6 1,-2 1,-2 2,-2 0,0 2,0 2,2 0,3 -4,13 -15,13 -11,0 -17,-9 -17,-21 0,-13 6,-22 18,-22 9,0 14,7 14,10 0,3 -2,3 -3,3 -2,0 -3,-1 -3,-2 -2,-3 -3,-7 -8,-7l0 0z"/>
   <path class="fil0" d="M204 141c-3,0 -4,-2 -4,-4 0,-2 2,-4 4,-4 2,0 4,2 4,4 0,2 -2,4 -4,4l0 0z"/>
   <path class="fil0" d="M207 188c0,1 0,1 -2,1l-4 0c-1,0 -1,0 -1,-1l0 -39c0,-1 0,-2 1,-2l4 0c1,0 2,0 2,2l0 39z"/>
   <path class="fil0" d="M232 186c-3,0 -6,-1 -8,-3l0 -24c0,-3 0,-7 7,-7 8,0 13,7 13,17 0,11 -5,17 -12,17zm1 -39c-7,0 -13,3 -15,5 -1,1 -1,3 -1,6l0 48c0,1 1,2 2,2l4 0c1,0 1,-1 1,-1l0 -19c2,1 4,3 9,3 13,0 19,-13 19,-24 0,-9 -4,-20 -19,-20z"/>
   <path class="fil0" d="M262 141c-3,0 -4,-2 -4,-4 0,-2 2,-4 4,-4 2,0 4,2 4,4 0,2 -2,4 -4,4l0 0z"/>
   <path class="fil0" d="M266 188c0,1 0,1 -2,1l-4 0c-1,0 -1,0 -1,-1l0 -39c0,-1 0,-2 1,-2l4 0c1,0 2,0 2,2l0 39z"/>
   <path class="fil0" d="M292 186c-6,0 -11,-7 -11,-18 0,-10 4,-16 10,-16 5,0 11,5 11,16 0,11 -4,18 -10,18zm0 -39c-12,0 -18,11 -18,22 0,11 6,22 18,22 12,0 18,-11 18,-22 0,-9 -6,-22 -18,-22z"/>
   <path class="fil0" d="M334 183c0,2 0,4 -5,4 -5,0 -9,-4 -9,-11 0,-6 3,-11 8,-11 3,0 4,1 5,2l0 16zm4 -34l-3 0c-1,0 -1,0 -1,1l0 13c-1,-1 -3,-2 -6,-2 -8,0 -12,8 -12,15 0,9 5,13 12,13 3,0 8,-1 10,-3 1,-1 1,-2 1,-3l0 -34c0,-1 0,-1 -1,-1z"/>
   <path class="fil0" d="M353 165c3,0 5,3 6,6l-13 2c1,-5 3,-8 7,-8zm10 15c-1,0 -1,0 -2,2 -2,3 -4,5 -7,5 -4,0 -8,-3 -8,-11l16 -2c1,0 2,0 2,-2 0,-2 -2,-9 -10,-9 -6,0 -9,5 -10,6 -1,2 -2,5 -2,8 0,2 0,5 2,8 2,5 7,6 10,6 8,0 11,-8 11,-9 0,-1 -1,-1 -1,-1z"/>
   <path class="fil0" d="M338 100c-18,-11 -39,-18 -61,-18 -3,0 -5,0 -8,0 2,0 3,-1 3,-1 12,0 16,-4 17,-5 1,0 11,-1 19,-3 3,-1 5,-3 7,-5l2 -2c5,-1 7,-4 7,-5 0,0 0,-1 0,-1 0,-1 -1,-3 -2,-4 -5,-4 -30,-23 -30,-23 -2,-1 -5,-2 -15,-6l-4 -2c-9,-4 -15,-4 -18,-2 -2,1 -3,3 -4,6 -1,7 -8,15 -14,21 -19,19 -8,30 -5,34l1 1c3,3 7,4 10,2 2,-2 7,-2 10,-2 -13,3 -26,8 -37,15 -2,-6 -3,-13 -3,-20 0,-38 28,-70 63,-70 35,0 63,31 63,70 0,7 -1,13 -3,20l0 0z"/>
   <path class="fil0" d="M443 232c-4,0 -7,-3 -7,-9 0,-6 3,-9 7,-9 4,0 7,3 7,9 0,6 -3,9 -7,9l0 0zm0 -15c-2,0 -3,2 -3,5 0,3 1,5 3,5 2,0 3,-2 3,-5 0,-3 -1,-6 -3,-6l0 0zm-16 14l0 -1c-1,1 -2,2 -3,2 -3,0 -5,-3 -5,-9 0,-5 2,-9 5,-9 1,0 2,1 3,1l0 -6 4 -2 0 25 -4 0 0 0zm0 -13c-1,-1 -1,-1 -3,-1 -1,0 -2,1 -2,5 0,4 0,6 2,6 1,0 2,-1 2,-1l0 -8zm-17 13l0 -1c-1,1 -2,2 -3,2 -3,0 -5,-2 -5,-6 0,-4 2,-6 5,-6 2,0 2,0 3,1l0 -1c0,-1 -1,-2 -2,-2 -1,0 -2,0 -4,1l-2 -3c2,-1 3,-2 5,-2 4,0 6,2 6,6l0 12 -4 0 0 0zm0 -8c-1,-1 -1,-1 -2,-1 -1,0 -2,1 -2,2 0,2 1,3 2,3 1,0 2,-1 2,-2l0 -3zm-17 8l0 -11c0,-2 0,-3 -2,-3 -1,0 -2,1 -2,1l0 13 -4 0 0 -18 4 0 0 1c1,-1 2,-2 3,-2 4,0 5,2 5,6l0 12 -4 0 0 0zm0 -20c-1,0 -2,0 -3,-1 -1,-1 -1,-1 -2,-1 -1,0 -1,0 -1,1l-3 0c0,-3 1,-4 3,-4 1,0 2,0 3,1 1,1 1,1 2,1 1,0 1,0 1,-1l3 0c0,3 -1,4 -3,4l0 0zm-20 20c-4,0 -7,-3 -7,-9 0,-6 3,-9 7,-9 4,0 7,3 7,9 0,6 -3,9 -7,9l0 0zm0 -15c-2,0 -3,2 -3,5 0,3 1,5 3,5 2,0 3,-2 3,-5 0,-3 -1,-6 -3,-6l0 0zm-18 15c-3,0 -5,-2 -7,-4l3 -3c1,2 3,3 4,3 2,0 3,-1 3,-3 0,-1 -1,-2 -4,-4 -4,-2 -6,-4 -6,-7 0,-4 3,-6 7,-6 3,0 5,1 6,3l-3 3c-1,-2 -2,-2 -4,-2 -1,0 -2,1 -2,2 0,1 1,2 3,4 4,2 6,4 6,8 0,4 -3,7 -7,7l0 0zm-21 -14c-1,-1 -1,-1 -2,-1 -1,0 -2,1 -3,2l0 13 -4 0 0 -18 4 0 0 1c1,-1 2,-2 3,-2 1,0 2,0 3,1l-1 4 0 0zm-18 13l0 -1c-1,1 -2,2 -3,2 -3,0 -5,-2 -5,-6 0,-4 2,-6 5,-6 2,0 2,0 3,1l0 -1c0,-1 -1,-2 -2,-2 -1,0 -2,0 -4,1l-2 -3c2,-1 3,-2 5,-2 4,0 6,2 6,6l0 12 -4 0 0 0zm0 -8c-1,-1 -1,-1 -2,-1 -1,0 -2,1 -2,2 0,2 1,3 2,3 1,0 2,-1 2,-2l0 -3zm-21 14l-1 -3c4,-1 5,-2 5,-5 -1,1 -2,2 -3,2 -3,0 -5,-3 -5,-9 0,-5 2,-9 6,-9 1,0 2,1 3,1l0 -1 4 0 0 16c0,5 -2,8 -8,8l0 0zm4 -19c-1,-1 -1,-1 -3,-1 -1,0 -2,1 -2,5 0,4 0,6 2,6 1,0 2,-1 2,-1l0 -8zm-18 13l0 -1c-1,1 -2,2 -3,2 -4,0 -5,-2 -5,-6l0 -12 4 0 0 11c0,2 0,3 2,3 1,0 2,-1 2,-1l0 -13 4 0 0 18 -4 0 0 0zm-24 0l0 -24 4 0 0 19 7 0 0 4 -12 0 0 0z"/>
   <path class="fil0" d="M473 189c0,2 0,2 -2,2l-9 0c-1,0 -2,0 -2,-2l0 -27c0,-3 0,-4 -1,-5 -1,-1 -3,-1 -4,-1 -5,0 -5,4 -5,7l0 28c0,2 -1,2 -2,2l-9 0c-1,0 -2,-1 -2,-2l0 -32c0,-3 0,-6 8,-7 3,-1 8,-1 11,-1 9,0 12,2 13,3 5,3 5,7 5,9l0 29z"/>
   <path class="fil0" d="M502 179c0,2 0,5 -3,5 -5,0 -8,-7 -8,-15 0,-8 2,-15 8,-15 1,0 2,1 3,1l0 23zm11 -47l-8 0c-1,0 -2,0 -2,2l0 15c-1,-1 -3,-2 -6,-2 -11,0 -18,11 -18,23 0,12 6,21 20,21 6,0 12,-2 14,-3 2,-2 3,-4 3,-6l0 -48c0,-2 -1,-2 -2,-2z"/>
   <path class="fil0" d="M535 189c0,2 -1,2 -2,2l-9 0c-2,0 -2,-1 -2,-2l0 -38c0,-1 0,-2 2,-2l9 0c2,0 2,0 2,2l0 38z"/>
   <path class="fil0" d="M542 134c0,-1 1,-2 2,-2l9 0c1,0 2,0 2,2l0 55c0,1 0,2 -2,2l-9 0c-1,0 -2,0 -2,-2l0 -55z"/>
   <path class="fil0" d="M534 138c0,3 -3,6 -6,6 -3,0 -6,-3 -6,-6 0,-3 3,-6 6,-6 3,0 6,3 6,6l0 0z"/>
   <polygon class="fil0" points="461,225 553,225 553,221 461,221 "/>
  </g>
 </g>
</svg>
